<svg xmlns="http://www.w3.org/2000/svg" viewBox="0 0 1000 1000"><title>Hesse Mamooli original cover art</title><defs><radialGradient id="b"><stop stop-color="#303236"/><stop offset="1" stop-color="#030405"/></radialGradient><filter id="g"><feGaussianBlur stdDeviation="5"/></filter></defs><rect width="1000" height="1000" fill="url(#b)"/><g fill="none" stroke="#eef0ef" stroke-opacity=".7"><path d="M0 520C130 360 260 680 390 500S650 320 1000 530" stroke-width="5"/><path d="M0 550C140 390 250 710 410 525S690 350 1000 560"/><path d="M0 580C150 420 260 735 430 550S710 390 1000 590"/><path d="M0 610C160 450 270 760 450 575S730 430 1000 620"/><path d="M0 640C160 480 290 780 470 600S760 470 1000 650"/></g><path d="M500 170v610M470 170h60M460 210h80M450 250h100" stroke="#fff" stroke-width="4" opacity=".7"/><circle cx="500" cy="520" r="105" fill="#08090a" stroke="#fff" stroke-width="3"/><circle cx="500" cy="520" r="58" fill="none" stroke="#bfc5c6" stroke-width="2"/><text x="500" y="900" fill="#fff" font-family="Georgia,serif" font-size="36" letter-spacing="9" text-anchor="middle">HESSE MAMOOLI</text><text x="500" y="945" fill="#899195" font-family="Arial" font-size="14" letter-spacing="7" text-anchor="middle">PEZHVAK MUSIC</text></svg>
