<svg xmlns="http://www.w3.org/2000/svg" viewBox="0 0 1000 1000"><title>Numbered signal original cover art</title><rect width="1000" height="1000" fill="#050607"/><g stroke="#cbd1d3" stroke-opacity=".22"><path d="M90 0v1000M180 0v1000M270 0v1000M360 0v1000M450 0v1000M540 0v1000M630 0v1000M720 0v1000M810 0v1000M900 0v1000M0 90h1000M0 180h1000M0 270h1000M0 360h1000M0 450h1000M0 540h1000M0 630h1000M0 720h1000M0 810h1000M0 900h1000"/></g><g fill="none" stroke="#f4f5f4" stroke-width="3"><path d="M80 550h110l35-130 48 280 45-180 38 50h100l40-210 48 270 46-140h150"/><circle cx="500" cy="500" r="230" stroke-opacity=".5"/><circle cx="500" cy="500" r="180" stroke-dasharray="4 18"/></g><text x="500" y="520" fill="#fff" font-family="Arial" font-size="112" font-weight="700" letter-spacing="15" text-anchor="middle">17:08</text><text x="500" y="880" fill="#dfe3e4" font-family="Arial" font-size="23" letter-spacing="8" text-anchor="middle">SIGNAL / 02</text><text x="500" y="925" fill="#858e94" font-family="Arial" font-size="14" letter-spacing="7" text-anchor="middle">PEZHVAK MUSIC</text></svg>
